<svg width="43" height="43" viewBox="0 0 43 43" fill="none" xmlns="http://www.w3.org/2000/svg">
<path d="M27.8258 33.9868C27.9506 34.1116 28.0497 34.2599 28.1172 34.423C28.1848 34.5861 28.2196 34.7609 28.2196 34.9375C28.2196 35.1141 28.1848 35.2889 28.1172 35.452C28.0497 35.6151 27.9506 35.7634 27.8258 35.8882C27.7009 36.0131 27.5527 36.1121 27.3896 36.1797C27.2265 36.2472 27.0516 36.282 26.8751 36.282C26.6985 36.282 26.5237 36.2472 26.3606 36.1797C26.1974 36.1121 26.0492 36.0131 25.9244 35.8882L12.4869 22.4507C12.3619 22.3259 12.2628 22.1777 12.1952 22.0146C12.1276 21.8514 12.0928 21.6766 12.0928 21.5C12.0928 21.3234 12.1276 21.1486 12.1952 20.9854C12.2628 20.8223 12.3619 20.6741 12.4869 20.5493L25.9244 7.1118C26.1765 6.85965 26.5185 6.718 26.8751 6.718C27.2317 6.718 27.5736 6.85965 27.8258 7.1118C28.0779 7.36394 28.2196 7.70592 28.2196 8.0625C28.2196 8.41908 28.0779 8.76106 27.8258 9.0132L15.3373 21.5L27.8258 33.9868Z" fill="#F8F8F8"/>
</svg>
