<svg width="279" height="22" viewBox="0 0 279 22" fill="none" xmlns="http://www.w3.org/2000/svg">
<path d="M0.73509 5.52441V1.19125H17.9517V5.52441H11.9936V21H6.69319V5.52441H0.73509ZM19.9756 21V1.19125H25.3534V8.92904H32.4721V1.19125H37.8499V21H32.4721V13.2622H25.3534V21H19.9756ZM45.7811 1.19125V21H40.4034V1.19125H45.7811ZM59.0079 7.38148C58.9564 6.73667 58.7145 6.23371 58.2825 5.87261C57.8569 5.51151 57.2089 5.33097 56.3384 5.33097C55.7839 5.33097 55.3293 5.39867 54.9746 5.53408C54.6264 5.66305 54.3685 5.84037 54.2008 6.06606C54.0332 6.29174 53.9461 6.54967 53.9397 6.83984C53.9268 7.07842 53.9687 7.29443 54.0654 7.48788C54.1686 7.67487 54.3298 7.84575 54.549 8.00051C54.7683 8.14881 55.0488 8.28422 55.3905 8.40674C55.7323 8.52925 56.1385 8.63887 56.6092 8.7356L58.2342 9.0838C59.3303 9.31593 60.2686 9.62222 61.0488 10.0027C61.829 10.3831 62.4674 10.8312 62.9639 11.3471C63.4604 11.8565 63.8247 12.4304 64.0568 13.0688C64.2954 13.7071 64.4179 14.4035 64.4244 15.158C64.4179 16.4605 64.0923 17.5631 63.4475 18.4659C62.8027 19.3686 61.8806 20.0553 60.6812 20.5261C59.4883 20.9968 58.0536 21.2321 56.3771 21.2321C54.6554 21.2321 53.153 20.9774 51.8698 20.468C50.5931 19.9586 49.6001 19.1752 48.8908 18.1177C48.1879 17.0537 47.8333 15.6932 47.8268 14.036H52.9338C52.966 14.6421 53.1175 15.1515 53.3884 15.5642C53.6592 15.9769 54.0396 16.2896 54.5297 16.5024C55.0262 16.7152 55.6162 16.8216 56.2997 16.8216C56.8736 16.8216 57.354 16.7507 57.7409 16.6088C58.1278 16.4669 58.4212 16.2703 58.621 16.0188C58.8209 15.7673 58.9241 15.4804 58.9306 15.158C58.9241 14.8549 58.8242 14.5905 58.6307 14.3648C58.4437 14.1327 58.1342 13.9264 57.7022 13.7458C57.2702 13.5588 56.6866 13.3847 55.9515 13.2235L53.9784 12.7979C52.2245 12.4175 50.8413 11.7824 49.829 10.8925C48.8231 9.99621 48.3233 8.77428 48.3298 7.22673C48.3233 5.96933 48.6586 4.86992 49.3357 3.92849C50.0192 2.98061 50.9639 2.2423 52.1697 1.71355C53.3819 1.1848 54.7715 0.920423 56.3384 0.920423C57.9375 0.920423 59.3207 1.18802 60.4878 1.72322C61.6549 2.25842 62.5544 3.01285 63.1863 3.98653C63.8247 4.95375 64.1471 6.0854 64.1536 7.38148H59.0079ZM71.8478 1.19125V21H66.4701V1.19125H71.8478ZM85.0746 7.38148C85.023 6.73667 84.7812 6.23371 84.3492 5.87261C83.9236 5.51151 83.2756 5.33097 82.4051 5.33097C81.8505 5.33097 81.396 5.39867 81.0413 5.53408C80.6931 5.66305 80.4352 5.84037 80.2675 6.06606C80.0999 6.29174 80.0128 6.54967 80.0064 6.83984C79.9935 7.07842 80.0354 7.29443 80.1321 7.48788C80.2353 7.67487 80.3965 7.84575 80.6157 8.00051C80.835 8.14881 81.1155 8.28422 81.4572 8.40674C81.799 8.52925 82.2052 8.63887 82.6759 8.7356L84.3008 9.0838C85.397 9.31593 86.3352 9.62222 87.1155 10.0027C87.8957 10.3831 88.5341 10.8312 89.0306 11.3471C89.5271 11.8565 89.8914 12.4304 90.1235 13.0688C90.3621 13.7071 90.4846 14.4035 90.4911 15.158C90.4846 16.4605 90.159 17.5631 89.5142 18.4659C88.8694 19.3686 87.9473 20.0553 86.7479 20.5261C85.555 20.9968 84.1203 21.2321 82.4438 21.2321C80.7221 21.2321 79.2197 20.9774 77.9365 20.468C76.6598 19.9586 75.6668 19.1752 74.9575 18.1177C74.2546 17.0537 73.9 15.6932 73.8935 14.036H79.0005C79.0327 14.6421 79.1842 15.1515 79.4551 15.5642C79.7259 15.9769 80.1063 16.2896 80.5964 16.5024C81.0929 16.7152 81.6829 16.8216 82.3664 16.8216C82.9403 16.8216 83.4207 16.7507 83.8076 16.6088C84.1945 16.4669 84.4878 16.2703 84.6877 16.0188C84.8876 15.7673 84.9908 15.4804 84.9973 15.158C84.9908 14.8549 84.8909 14.5905 84.6974 14.3648C84.5104 14.1327 84.2009 13.9264 83.7689 13.7458C83.3368 13.5588 82.7533 13.3847 82.0182 13.2235L80.0451 12.7979C78.2912 12.4175 76.908 11.7824 75.8957 10.8925C74.8898 9.99621 74.39 8.77428 74.3965 7.22673C74.39 5.96933 74.7253 4.86992 75.4024 3.92849C76.0859 2.98061 77.0305 2.2423 78.2364 1.71355C79.4486 1.1848 80.8382 0.920423 82.4051 0.920423C84.0042 0.920423 85.3874 1.18802 86.5545 1.72322C87.7216 2.25842 88.6211 3.01285 89.253 3.98653C89.8914 4.95375 90.2138 6.0854 90.2203 7.38148H85.0746ZM109.676 1.19125V21H105.188L98.0306 10.5927H97.9145V21H92.5368V1.19125H97.1021L104.143 11.5599H104.298V1.19125H109.676ZM112.22 21V1.19125H126.496V5.52441H117.598V8.92904H125.761V13.2622H117.598V16.6668H126.457V21H112.22ZM134.58 1.19125L138.642 15.158H138.797L142.859 1.19125H148.933L142.395 21H135.044L128.505 1.19125H134.58ZM150.841 21V1.19125H165.117V5.52441H156.219V8.92904H164.382V13.2622H156.219V16.6668H165.079V21H150.841ZM167.784 21V1.19125H176.335C177.805 1.19125 179.091 1.45884 180.194 1.99404C181.297 2.52924 182.154 3.2998 182.767 4.30571C183.379 5.31162 183.686 6.51743 183.686 7.92313C183.686 9.34172 183.37 10.5379 182.738 11.5115C182.112 12.4852 181.232 13.2203 180.097 13.7168C178.969 14.2133 177.65 14.4616 176.141 14.4616H171.034V10.2832H175.058C175.69 10.2832 176.228 10.2058 176.673 10.051C177.125 9.88982 177.47 9.63511 177.708 9.28691C177.953 8.93871 178.076 8.48412 178.076 7.92313C178.076 7.35569 177.953 6.89465 177.708 6.54C177.47 6.1789 177.125 5.91452 176.673 5.74687C176.228 5.57277 175.69 5.48572 175.058 5.48572H173.162V21H167.784ZM179.391 11.9081L184.343 21H178.501L173.665 11.9081H179.391ZM185.436 5.52441V1.19125H202.653V5.52441H196.695V21H191.394V5.52441H185.436ZM204.677 21V1.19125H210.055V8.92904H217.173V1.19125H222.551V21H217.173V13.2622H210.055V21H204.677ZM230.25 21H224.447L230.985 1.19125H238.336L244.875 21H239.071L234.738 6.64639H234.583L230.25 21ZM229.167 13.1848H240.077V17.2085H229.167V13.1848ZM243.741 5.52441V1.19125H260.957V5.52441H254.999V21H249.699V5.52441H243.741ZM267.817 12.1402V5.00211H271.222C271.783 5.00211 272.263 5.10206 272.663 5.30195C273.063 5.50184 273.366 5.78234 273.572 6.14343C273.785 6.50453 273.891 6.93011 273.891 7.42017C273.891 7.91668 273.782 8.33903 273.562 8.68723C273.343 9.03544 273.03 9.30303 272.624 9.49003C272.218 9.67058 271.731 9.76085 271.164 9.76085H268.92V8.29067H270.835C271.144 8.29067 271.38 8.21652 271.541 8.06821C271.702 7.9199 271.783 7.70389 271.783 7.42017C271.783 7.11711 271.702 6.89142 271.541 6.74311C271.38 6.58836 271.144 6.51098 270.835 6.51098H269.868V12.1402H267.817ZM272.537 8.89035L274.065 12.1402H271.821L270.448 8.89035H272.537ZM270.68 16.396C269.61 16.396 268.607 16.1961 267.672 15.7963C266.737 15.3965 265.915 14.842 265.206 14.1327C264.496 13.4234 263.942 12.6013 263.542 11.6663C263.142 10.7313 262.942 9.72861 262.942 8.65822C262.942 7.58782 263.142 6.58513 263.542 5.65015C263.942 4.71517 264.496 3.89303 265.206 3.18373C265.915 2.47443 266.737 1.91989 267.672 1.5201C268.607 1.12032 269.61 0.920423 270.68 0.920423C271.751 0.920423 272.753 1.12032 273.688 1.5201C274.623 1.91989 275.445 2.47443 276.155 3.18373C276.864 3.89303 277.418 4.71517 277.818 5.65015C278.218 6.58513 278.418 7.58782 278.418 8.65822C278.418 9.72861 278.218 10.7313 277.818 11.6663C277.418 12.6013 276.864 13.4234 276.155 14.1327C275.445 14.842 274.623 15.3965 273.688 15.7963C272.753 16.1961 271.751 16.396 270.68 16.396ZM270.68 14.2294C271.712 14.2294 272.647 13.9812 273.485 13.4847C274.33 12.9817 275 12.3079 275.497 11.4632C276 10.6185 276.251 9.68348 276.251 8.65822C276.251 7.63296 276 6.69798 275.497 5.85327C275 5.00856 274.33 4.33795 273.485 3.84144C272.64 3.33848 271.705 3.08701 270.68 3.08701C269.655 3.08701 268.72 3.33848 267.875 3.84144C267.03 4.33795 266.357 5.00856 265.854 5.85327C265.357 6.69798 265.109 7.63296 265.109 8.65822C265.109 9.68348 265.357 10.6185 265.854 11.4632C266.357 12.3014 267.03 12.972 267.875 13.475C268.72 13.978 269.655 14.2294 270.68 14.2294Z" fill="#F4F4F4"/>
</svg>
