<svg width="43" height="43" viewBox="0 0 43 43" fill="none" xmlns="http://www.w3.org/2000/svg">
<path d="M15.1742 33.9868C15.0494 34.1116 14.9503 34.2599 14.8828 34.423C14.8152 34.5861 14.7804 34.7609 14.7804 34.9375C14.7804 35.1141 14.8152 35.2889 14.8828 35.452C14.9503 35.6151 15.0494 35.7634 15.1742 35.8882C15.2991 36.0131 15.4473 36.1121 15.6104 36.1797C15.7735 36.2472 15.9484 36.282 16.1249 36.282C16.3015 36.282 16.4763 36.2472 16.6394 36.1797C16.8026 36.1121 16.9508 36.0131 17.0756 35.8882L30.5131 22.4507C30.6381 22.3259 30.7372 22.1777 30.8048 22.0146C30.8724 21.8514 30.9072 21.6766 30.9072 21.5C30.9072 21.3234 30.8724 21.1486 30.8048 20.9854C30.7372 20.8223 30.6381 20.6741 30.5131 20.5493L17.0756 7.1118C16.8235 6.85965 16.4815 6.718 16.1249 6.718C15.7683 6.718 15.4264 6.85965 15.1742 7.1118C14.9221 7.36394 14.7804 7.70592 14.7804 8.0625C14.7804 8.41908 14.9221 8.76106 15.1742 9.0132L27.6627 21.5L15.1742 33.9868Z" fill="#F8F8F8"/>
</svg>
